<?xml version="1.0" encoding="utf-8"?>
<!-- Generator: Adobe Illustrator 16.0.4, SVG Export Plug-In . SVG Version: 6.00 Build 0)  -->
<!DOCTYPE svg PUBLIC "-//W3C//DTD SVG 1.1//EN" "http://www.w3.org/Graphics/SVG/1.1/DTD/svg11.dtd">
<svg version="1.1" id="Layer_1" xmlns="http://www.w3.org/2000/svg" xmlns:xlink="http://www.w3.org/1999/xlink" x="0px" y="0px"
	 width="283.46px" height="127.56px" viewBox="0 0 283.46 127.56" enable-background="new 0 0 283.46 127.56" xml:space="preserve">
<path d="M271.46,0H12C5.373,0,0,5.373,0,12v103.56c0,6.628,5.373,12,12,12h259.46c6.628,0,12-5.372,12-12V12
	C283.46,5.373,278.088,0,271.46,0z"/>
<path fill="#FFFFFF" d="M266.768,5.56H16.693c-6.388,0-11.566,4.904-11.566,10.954v94.532c0,6.051,5.178,10.954,11.566,10.954
	h250.074c6.388,0,11.564-4.903,11.564-10.954V16.514C278.332,10.464,273.155,5.56,266.768,5.56z"/>
<path d="M274.332,111.046c0,3.835-3.394,6.954-7.564,6.954H16.693c-4.172,0-7.566-3.119-7.566-6.954V66.779h265.205V111.046z"/>
<g>
	<path d="M48.935,31.11v9.725c-0.006,4.787-3.885,8.666-8.671,8.671h-8.628V27.118H29.6v-4.68h10.664
		C45.05,22.443,48.929,26.323,48.935,31.11z M44.254,31.109c-0.002-2.204-1.788-3.988-3.991-3.991h-3.949v17.709h3.949
		c2.203-0.003,3.989-1.788,3.991-3.991V31.109z"/>
	<path d="M68.686,40.979c0,3.445-2.075,6.55-5.256,7.868c-3.182,1.318-6.845,0.589-9.28-1.846c-2.436-2.436-3.164-6.098-1.846-9.28
		c1.318-3.181,4.423-5.257,7.867-5.257C64.871,32.471,68.68,36.28,68.686,40.979z M64.006,40.979c0-1.551-0.935-2.95-2.368-3.543
		c-1.433-0.594-3.083-0.266-4.18,0.831c-1.097,1.097-1.426,2.747-0.832,4.18c0.593,1.433,1.992,2.368,3.543,2.368
		C62.288,44.813,64.004,43.097,64.006,40.979z"/>
	<path d="M86.352,39.946v9.561h-4.68v-9.561c0-1.547-1.254-2.801-2.802-2.801c-1.547,0-2.802,1.254-2.802,2.801v9.561h-4.68V32.464
		h4.68v0.544c0.89-0.36,1.842-0.545,2.802-0.544C83,32.469,86.348,35.817,86.352,39.946z"/>
	<path d="M95.6,19.307v6.507c0,3.106-2.527,5.633-5.633,5.633h-0.509v-4.681h0.509c0.525,0,0.954-0.428,0.954-0.952v-6.507H95.6z"/>
	<path d="M103.929,37.145v7.669h2.24v4.681h-2.34c-2.529-0.003-4.578-2.052-4.581-4.58v-7.77h-1.357v-4.681h1.357V22.438h4.68
		v10.027h2.24v4.681H103.929z"/>
	<path d="M130.825,43.648l3.31,3.31c-3.325,3.325-8.717,3.325-12.042,0c-3.325-3.325-3.325-8.717,0-12.043
		c3.325-3.325,8.717-3.325,12.042,0l-3.31,3.311c-1.227-1.228-3.126-1.479-4.629-0.61c-1.503,0.868-2.236,2.638-1.787,4.314
		c0.45,1.677,1.968,2.843,3.705,2.843C129.13,44.774,130.107,44.37,130.825,43.648z"/>
	<path d="M152.144,40.979c0,3.445-2.074,6.55-5.256,7.868c-3.183,1.318-6.845,0.589-9.28-1.846c-2.436-2.436-3.165-6.098-1.847-9.28
		c1.319-3.181,4.423-5.257,7.868-5.257C148.329,32.471,152.138,36.28,152.144,40.979z M147.464,40.979
		c0-1.551-0.936-2.95-2.368-3.543c-1.432-0.594-3.083-0.266-4.179,0.831c-1.097,1.097-1.425,2.747-0.831,4.18
		c0.593,1.433,1.992,2.368,3.543,2.368C145.746,44.813,147.461,43.097,147.464,40.979z"/>
	<path d="M180.094,39.946v9.561h-4.679v-9.561c0-1.547-1.255-2.801-2.804-2.801c-1.547,0-2.8,1.254-2.8,2.801v9.561h-4.682v-9.561
		c0-1.547-1.255-2.801-2.801-2.801c-1.547,0-2.802,1.254-2.802,2.801v9.56h-4.682V32.476h4.682v0.532
		c2.714-1.097,5.818-0.507,7.943,1.508c1.387-1.318,3.228-2.054,5.141-2.052C176.742,32.469,180.09,35.816,180.094,39.946z"/>
	<path d="M199.629,37.917c1.269,3.287,0.38,7.012-2.23,9.375c-2.609,2.363-6.405,2.876-9.549,1.289v30.853h-4.68v-46.97h4.68v0.915
		c1.188-0.603,2.503-0.916,3.835-0.915C195.205,32.464,198.364,34.633,199.629,37.917z M191.685,44.816
		c2.118-0.003,3.834-1.72,3.836-3.837c0-1.551-0.935-2.95-2.368-3.543c-1.435-0.594-3.084-0.266-4.181,0.831
		s-1.425,2.747-0.831,4.18C188.734,43.88,190.133,44.815,191.685,44.816L191.685,44.816z"/>
	<path d="M202.901,49.529v-27.07h4.681v27.07H202.901z"/>
	<path d="M227.325,32.477v17.03h-4.681v-0.914c-3.583,1.809-7.939,0.871-10.462-2.25c-2.521-3.122-2.521-7.58,0-10.701
		c2.522-3.123,6.879-4.06,10.462-2.251v-0.914L227.325,32.477z M222.645,40.99c0-2.118-1.717-3.835-3.835-3.835
		s-3.835,1.717-3.835,3.835c0,2.119,1.717,3.835,3.835,3.835C220.927,44.824,222.642,43.107,222.645,40.99z"/>
	<path d="M230.411,27.452v-4.94h4.681v4.94H230.411z M230.411,49.506V32.5h4.681v17.007H230.411z"/>
	<path d="M253.152,39.946v9.561h-4.681v-9.561c0-1.547-1.254-2.801-2.802-2.801c-1.547,0-2.802,1.254-2.802,2.801v9.561h-4.68
		V32.464h4.68v0.544c0.891-0.36,1.843-0.545,2.803-0.544C249.801,32.469,253.148,35.817,253.152,39.946z"/>
</g>
<g>
	<path fill="#FFFFFF" d="M50.252,96.438c0-1.007-1.187-1.164-2.574-1.545c-1.298-0.357-2.619-0.917-2.619-2.686
		c0-2.238,2.015-3.156,4.052-3.156c1.186,0,2.686,0.291,3.716,0.918l-0.022,2.484l-1.858,0.224l-0.045-1.388
		c-0.537-0.224-1.142-0.381-1.724-0.381c-0.896,0-1.724,0.381-1.724,1.142c0,0.717,0.761,0.918,2.126,1.254
		c1.343,0.358,3.089,0.851,3.089,2.955c0,2.171-1.835,3.268-4.164,3.268c-1.321,0-3.201-0.336-4.275-0.984l0.626-2.597l1.836,0.179
		l-0.157,1.254c0.537,0.246,1.343,0.313,1.813,0.313C49.536,97.691,50.252,97.243,50.252,96.438z"/>
	<path fill="#FFFFFF" d="M64.755,98.766l-0.627,0.537h-2.888l-0.067-1.925c-0.671,1.275-1.746,2.126-3.268,2.126
		c-1.835,0-3.224-1.119-2.91-3.604l0.582-4.79h-1.455l0.179-1.366l0.582-0.492h3.201l-0.716,5.775
		c-0.247,1.902,0.335,2.642,1.589,2.642c1.388,0,2.149-1.075,2.396-2.418l0.739-5.999h2.283l-0.985,8.215h1.522L64.755,98.766z"/>
	<path fill="#FFFFFF" d="M77.579,89.252l-0.157,1.365l-0.604,0.493h-0.895l-0.963,7.812c-0.358,2.91-1.768,5.351-5.238,5.351
		c-1.925,0-3.738-0.896-4.164-3.09l1.656-0.895c0.425,1.388,1.478,1.992,2.664,1.992c1.656,0,2.529-1.142,2.798-3.381l0.179-1.566
		c-0.694,1.209-1.791,2.193-3.425,2.193c-2.194,0-3.268-1.835-3.268-4.208c0-2.753,1.433-6.268,4.746-6.268
		c1.455,0,2.44,0.671,2.865,1.791l0.447-1.59H77.579z M68.647,95.05c0,1.611,0.515,2.642,1.657,2.642
		c1.41,0,2.552-1.522,2.865-2.843l0.134-1.187c0.179-1.679-0.784-2.754-2.06-2.754C69.431,90.908,68.647,92.99,68.647,95.05z"/>
	<path fill="#FFFFFF" d="M89.239,89.252l-0.157,1.365l-0.604,0.493h-0.895l-0.963,7.812c-0.358,2.91-1.768,5.351-5.238,5.351
		c-1.925,0-3.738-0.896-4.164-3.09l1.656-0.895c0.425,1.388,1.478,1.992,2.664,1.992c1.656,0,2.529-1.142,2.798-3.381l0.179-1.566
		c-0.694,1.209-1.791,2.193-3.425,2.193c-2.194,0-3.268-1.835-3.268-4.208c0-2.753,1.433-6.268,4.746-6.268
		c1.455,0,2.44,0.671,2.865,1.791l0.447-1.59H89.239z M80.307,95.05c0,1.611,0.515,2.642,1.657,2.642
		c1.41,0,2.552-1.522,2.865-2.843l0.134-1.187c0.179-1.679-0.784-2.754-2.06-2.754C81.091,90.908,80.307,92.99,80.307,95.05z"/>
	<path fill="#FFFFFF" d="M96.198,95.9l1.858,0.381c-0.336,1.724-1.903,3.245-4.432,3.245c-2.417,0-4.164-1.41-4.164-4.454
		c0-3.291,2.015-6.021,5.305-6.021c2.015,0,3.492,1.052,3.492,2.663c0,1.5-0.917,2.553-3.582,3.112
		c-0.783,0.179-1.701,0.313-2.708,0.425c0.067,1.545,0.582,2.44,2.015,2.44C95.437,97.691,95.929,96.684,96.198,95.9z
		 M95.839,91.871c0-0.828-0.604-1.142-1.365-1.142c-1.567,0-2.238,1.522-2.44,3.089c0.582-0.067,1.097-0.179,1.5-0.246
		C95.504,93.169,95.839,92.543,95.839,91.871z"/>
	<path fill="#FFFFFF" d="M105.083,96.438c0-1.007-1.187-1.164-2.574-1.545c-1.298-0.357-2.619-0.917-2.619-2.686
		c0-2.238,2.015-3.156,4.052-3.156c1.186,0,2.686,0.291,3.716,0.918l-0.022,2.484l-1.858,0.224l-0.045-1.388
		c-0.537-0.224-1.142-0.381-1.724-0.381c-0.896,0-1.724,0.381-1.724,1.142c0,0.717,0.761,0.918,2.126,1.254
		c1.343,0.358,3.089,0.851,3.089,2.955c0,2.171-1.835,3.268-4.164,3.268c-1.321,0-3.201-0.336-4.275-0.984l0.626-2.597l1.836,0.179
		l-0.157,1.254c0.537,0.246,1.343,0.313,1.813,0.313C104.366,97.691,105.083,97.243,105.083,96.438z"/>
	<path fill="#FFFFFF" d="M109.781,89.252h0.873l0.291-2.351l0.739-0.761h1.657l-0.381,3.111h3.156l-0.179,1.231l-0.649,0.627h-2.552
		l-0.604,4.991c-0.134,1.119,0.134,1.59,0.873,1.59c0.537,0,1.052-0.269,1.478-1.858l1.634,0.56c-0.56,2.172-1.5,3.134-3.357,3.134
		c-2.037,0-3.224-1.187-2.955-3.224l0.627-5.192h-1.478l0.179-1.254L109.781,89.252z"/>
	<path fill="#FFFFFF" d="M131.648,96.55c1.544-2.015,2.149-3.47,2.149-5.171c0-0.739-0.112-1.389-0.403-2.127h2.596
		c0.358,1.902,0.045,3.873-1.41,5.954c-0.739,1.075-2.238,2.888-3.492,4.097h-1.03l-1.544-6.447h-0.112l-3.38,6.447h-1.253
		l-2.194-8.192h-1.052l0.179-1.321l0.604-0.537h4.432l-0.157,1.32l-0.627,0.538h-0.985l1.03,4.835h0.112l3.335-6.693h1.41
		l1.679,7.298H131.648z"/>
	<path fill="#FFFFFF" d="M138.158,83.902h3.179l-0.873,7.118c0.694-1.187,1.724-1.97,3.2-1.97c1.836,0,3.225,1.119,2.91,3.604
		l-0.582,4.812h1.434l-0.156,1.344l-0.605,0.492h-3.178l0.715-5.775c0.225-1.902-0.379-2.619-1.588-2.619
		c-1.388,0-2.171,1.03-2.417,2.351l-0.739,6.044h-2.283l1.656-13.565h-1.455l0.157-1.298L138.158,83.902z"/>
	<path fill="#FFFFFF" d="M158.033,92.654l-0.605,4.812h1.367l-0.158,1.344l-0.582,0.492h-2.775l-0.045-2.037
		c-0.627,1.231-1.678,2.261-3.334,2.261c-2.195,0-3.336-1.791-3.336-4.275c0-2.664,1.32-6.2,4.656-6.2
		c1.477,0,2.484,0.716,2.887,1.88c0.135-0.56,0.27-1.119,0.471-1.679h2.217C158.459,90.394,158.168,91.513,158.033,92.654z
		 M151.049,94.96c0,1.746,0.582,2.731,1.725,2.731c1.365,0,2.395-1.522,2.686-2.865l0.18-1.366c0.066-1.566-0.896-2.552-2.082-2.552
		C151.721,90.908,151.049,93.035,151.049,94.96z"/>
	<path fill="#FFFFFF" d="M160.852,89.252h0.873l0.291-2.351l0.738-0.761h1.656l-0.381,3.111h3.156l-0.18,1.231l-0.648,0.627h-2.553
		l-0.604,4.991c-0.135,1.119,0.135,1.59,0.873,1.59c0.537,0,1.053-0.269,1.477-1.858l1.635,0.56c-0.559,2.172-1.5,3.134-3.357,3.134
		c-2.037,0-3.223-1.187-2.955-3.224l0.627-5.192h-1.477l0.178-1.254L160.852,89.252z"/>
	<path fill="#FFFFFF" d="M170.162,83.253h2.283l-1.791,5.104h-2.307L170.162,83.253z"/>
	<path fill="#FFFFFF" d="M177.637,96.438c0-1.007-1.188-1.164-2.574-1.545c-1.299-0.357-2.619-0.917-2.619-2.686
		c0-2.238,2.014-3.156,4.051-3.156c1.188,0,2.688,0.291,3.717,0.918l-0.023,2.484l-1.857,0.224l-0.045-1.388
		c-0.537-0.224-1.141-0.381-1.723-0.381c-0.896,0-1.725,0.381-1.725,1.142c0,0.717,0.762,0.918,2.127,1.254
		c1.344,0.358,3.09,0.851,3.09,2.955c0,2.171-1.836,3.268-4.164,3.268c-1.32,0-3.201-0.336-4.275-0.984l0.627-2.597l1.836,0.179
		l-0.158,1.254c0.537,0.246,1.344,0.313,1.814,0.313C176.92,97.691,177.637,97.243,177.637,96.438z"/>
	<path fill="#FFFFFF" d="M187.125,83.902h3.178l-0.895,7.23c0.648-1.143,1.635-2.082,3.201-2.082c2.373,0,3.559,1.88,3.559,4.253
		c0,2.798-1.389,6.223-4.791,6.223c-1.477,0-2.461-0.671-2.887-1.791c-0.111,0.516-0.27,1.053-0.402,1.567h-2.307
		c0.314-0.985,0.605-2.037,0.717-3.021l1.275-10.544h-1.41l0.156-1.298L187.125,83.902z M193.684,93.617
		c0-1.59-0.582-2.709-1.857-2.709c-1.613,0-2.529,1.657-2.754,3.134l-0.023,0.135l-0.133,1.029
		c-0.023,1.455,0.828,2.485,2.193,2.485C192.877,97.691,193.684,95.386,193.684,93.617z"/>
	<path fill="#FFFFFF" d="M204.068,95.9l1.857,0.381c-0.336,1.724-1.902,3.245-4.432,3.245c-2.418,0-4.164-1.41-4.164-4.454
		c0-3.291,2.014-6.021,5.305-6.021c2.016,0,3.492,1.052,3.492,2.663c0,1.5-0.918,2.553-3.582,3.112
		c-0.783,0.179-1.701,0.313-2.707,0.425c0.066,1.545,0.582,2.44,2.014,2.44C203.307,97.691,203.799,96.684,204.068,95.9z
		 M203.709,91.871c0-0.828-0.604-1.142-1.365-1.142c-1.566,0-2.238,1.522-2.439,3.089c0.582-0.067,1.098-0.179,1.5-0.246
		C203.373,93.169,203.709,92.543,203.709,91.871z"/>
	<path fill="#FFFFFF" d="M207.982,89.252h0.873l0.291-2.351l0.738-0.761h1.656l-0.379,3.111h3.156l-0.18,1.231l-0.65,0.627h-2.551
		l-0.605,4.991c-0.133,1.119,0.135,1.59,0.873,1.59c0.539,0,1.053-0.269,1.479-1.858l1.635,0.56c-0.561,2.172-1.5,3.134-3.359,3.134
		c-2.037,0-3.223-1.187-2.953-3.224l0.625-5.192h-1.477l0.18-1.254L207.982,89.252z"/>
	<path fill="#FFFFFF" d="M215.883,89.252h0.873l0.291-2.351l0.738-0.761h1.656l-0.379,3.111h3.156l-0.18,1.231l-0.65,0.627h-2.551
		l-0.605,4.991c-0.133,1.119,0.135,1.59,0.873,1.59c0.539,0,1.053-0.269,1.479-1.858l1.635,0.56c-0.561,2.172-1.5,3.134-3.359,3.134
		c-2.037,0-3.223-1.187-2.953-3.224l0.625-5.192h-1.477l0.18-1.254L215.883,89.252z"/>
	<path fill="#FFFFFF" d="M229.738,95.9l1.857,0.381c-0.336,1.724-1.902,3.245-4.432,3.245c-2.418,0-4.164-1.41-4.164-4.454
		c0-3.291,2.014-6.021,5.305-6.021c2.016,0,3.492,1.052,3.492,2.663c0,1.5-0.918,2.553-3.582,3.112
		c-0.783,0.179-1.701,0.313-2.707,0.425c0.066,1.545,0.582,2.44,2.014,2.44C228.977,97.691,229.469,96.684,229.738,95.9z
		 M229.379,91.871c0-0.828-0.604-1.142-1.365-1.142c-1.566,0-2.238,1.522-2.439,3.089c0.582-0.067,1.098-0.179,1.5-0.246
		C229.043,93.169,229.379,92.543,229.379,91.871z"/>
	<path fill="#FFFFFF" d="M236.697,89.252l0.09,2.574c0.469-1.388,1.32-2.775,2.506-2.775c0.471,0,0.807,0.134,1.143,0.402
		l-0.381,2.44c-0.471-0.269-0.807-0.336-1.164-0.336c-1.008,0-1.812,0.783-2.104,1.97l-0.537,3.939h1.992l-0.18,1.299l-0.605,0.537
		h-5.148l0.18-1.298l0.605-0.538h0.85l0.762-6.356h-1.5l0.156-1.321l0.605-0.537H236.697z"/>
</g>
<g>
</g>
<g>
</g>
<g>
</g>
<g>
</g>
<g>
</g>
<g>
</g>
</svg>
