<?xml version="1.0" encoding="utf-8"?>
<!-- Generator: Adobe Illustrator 16.0.4, SVG Export Plug-In . SVG Version: 6.00 Build 0)  -->
<!DOCTYPE svg PUBLIC "-//W3C//DTD SVG 1.1//EN" "http://www.w3.org/Graphics/SVG/1.1/DTD/svg11.dtd">
<svg version="1.1" id="Layer_1" xmlns="http://www.w3.org/2000/svg" xmlns:xlink="http://www.w3.org/1999/xlink" x="0px" y="0px"
	 width="299.339px" height="124.551px" viewBox="0 0 299.339 124.551" enable-background="new 0 0 299.339 124.551"
	 xml:space="preserve">
<g>
	<path d="M38.375,21.2h-7.646v26.398h7.646c7.264,0,13.312-5.504,13.312-13.215C51.687,26.703,45.607,21.2,38.375,21.2
		 M37.671,42.223h-0.928V26.576h0.928c4.479,0,7.52,3.423,7.52,7.838C45.157,38.83,42.118,42.223,37.671,42.223"/>
	<path d="M62.534,30.703c-5.536,0-9.887,3.584-9.887,8.703c0,5.056,3.967,8.672,9.887,8.672c5.663,0,9.791-3.616,9.791-8.672
		C72.325,34.287,67.975,30.703,62.534,30.703 M62.502,43.246c-2.304,0-3.84-1.6-3.84-3.84c0-2.271,1.696-3.871,3.84-3.871
		c2.112,0,3.808,1.6,3.808,3.871C66.311,41.646,64.71,43.246,62.502,43.246"/>
	<path d="M84.838,30.703c-1.792,0-3.424,0.928-4.704,2.207H80.07v-1.728h-5.663v16.416h5.663v-9.28c0-1.632,1.664-3.199,3.361-3.199
		c1.823,0,2.943,1.567,2.943,3.199v9.28h5.664V36.782C92.039,32.207,87.846,30.703,84.838,30.703"/>
	<path d="M98.343,20.72c-1.824,0-3.297,1.504-3.297,3.36c0,1.504,1.088,2.656,2.496,3.007c-0.447,2.433-2.207,4.096-2.207,4.096
		l1.504,1.184c2.335-1.952,4.863-4.8,4.863-8.287C101.702,22.224,100.198,20.72,98.343,20.72"/>
	<path d="M111.75,42.99c-0.896,0-1.279-0.736-1.279-2.271v-5.217h3.455v-4.32h-3.455v-6.111h-5.664v6.111h-2.368v4.32h2.368v6.304
		c0,2.912,1.088,6.272,5.599,6.272c2.336,0,4.16-1.025,4.16-1.025l-1.408-4.575C113.158,42.479,112.485,42.99,111.75,42.99"/>
	<path d="M132.933,35.343c1.696,0,2.752,0.768,2.752,0.768l1.92-3.872c0,0-1.856-1.536-5.504-1.536
		c-4.768,0-9.087,3.904-9.087,8.736c0,4.8,4.352,8.639,9.087,8.639c3.648,0,5.504-1.472,5.504-1.472l-1.92-3.936
		c0,0-1.056,0.768-2.752,0.768c-2.144,0-3.903-1.791-3.903-4.064C129.03,37.135,130.789,35.343,132.933,35.343"/>
	<path d="M148.101,30.703c-5.535,0-9.886,3.584-9.886,8.703c0,5.056,3.966,8.672,9.886,8.672c5.664,0,9.791-3.616,9.791-8.672
		C157.892,34.287,153.541,30.703,148.101,30.703 M148.07,43.246c-2.305,0-3.84-1.6-3.84-3.84c0-2.271,1.695-3.871,3.84-3.871
		c2.111,0,3.807,1.6,3.807,3.871C151.877,41.646,150.276,43.246,148.07,43.246"/>
	<path d="M181.572,30.703c-1.791,0-3.712,0.928-5.439,3.008c-1.153-2.208-3.552-3.008-5.729-3.008c-1.791,0-3.424,0.928-4.703,2.207
		h-0.064v-1.728h-5.663v16.416h5.663v-9.6c0-1.312,0.736-2.752,2.624-2.752c2.016,0,2.879,1.44,2.879,3.072v9.28h5.664v-9.791
		c0.065-1.249,0.832-2.561,2.624-2.561c2.016,0,2.88,1.44,2.88,3.072v9.28h5.664V36.782
		C187.972,32.207,184.58,30.703,181.572,30.703"/>
	<rect x="212.326" y="20.08" width="5.663" height="27.518"/>
	<path d="M233.668,32.75c-1.344-1.311-3.166-2.047-5.375-2.047c-4.799,0-8.159,3.903-8.159,8.703c0,4.8,3.36,8.672,8.159,8.672
		c2.24,0,4.16-0.992,5.375-2.336h0.063v1.856h5.601V31.183h-5.664V32.75z M229.988,43.246c-2.304,0-3.839-1.6-3.839-3.84
		c0-2.271,1.695-3.871,3.839-3.871c2.112,0,3.809,1.6,3.809,3.871C233.797,41.646,232.197,43.246,229.988,43.246"/>
	<path d="M245.573,21.039c-1.856,0-3.36,1.504-3.36,3.36c0,1.857,1.504,3.361,3.36,3.361c1.855,0,3.359-1.504,3.359-3.361
		C248.933,22.543,247.429,21.039,245.573,21.039"/>
	<rect x="242.662" y="31.183" width="5.662" height="16.415"/>
	<path d="M262.244,30.703c-1.791,0-3.425,0.928-4.703,2.207h-0.065v-1.728h-5.664v16.416h5.664v-9.28
		c0-1.632,1.664-3.199,3.36-3.199c1.824,0,2.942,1.567,2.942,3.199v9.28h5.664V36.782C269.442,32.207,265.252,30.703,262.244,30.703
		"/>
	<path d="M202.021,30.703c-2.24,0-4.16,0.992-5.376,2.336h-0.062v-1.856h-5.601v24.392v0.342v3.764c0,2.844-2.306,5.149-5.148,5.149
		v3.76h15.961v-3.76c-2.843,0-5.149-2.305-5.149-5.149v-3.764v-9.888c1.344,1.313,3.167,2.049,5.376,2.049
		c4.799,0,8.159-3.904,8.159-8.704C210.18,34.574,206.819,30.703,202.021,30.703z M200.324,43.246c-2.111,0-3.808-1.6-3.808-3.872
		c0-2.239,1.601-3.839,3.808-3.839c2.305,0,3.841,1.6,3.841,3.839C204.165,41.646,202.469,43.246,200.324,43.246z"/>
</g>
<path d="M293.669,113.232V64.656h-288v48.557c0,3.118,2.551,5.669,5.669,5.669H288C291.111,118.882,293.658,116.342,293.669,113.232
	z"/>
<g>
	<path d="M288,121.382H11.338c-4.504,0-8.169-3.665-8.169-8.169V11.338c0-4.504,3.665-8.169,8.169-8.169H288
		c4.505,0,8.17,3.665,8.17,8.169v101.875C296.17,117.717,292.505,121.382,288,121.382z M11.338,8.169
		c-1.748,0-3.169,1.421-3.169,3.169v101.875c0,1.747,1.421,3.169,3.169,3.169H288c1.748,0,3.17-1.422,3.17-3.169V11.338
		c0-1.748-1.422-3.169-3.17-3.169H11.338z"/>
</g>
<g>
	<path fill="#FFFFFF" d="M31.683,98.05c0-0.282,0.062-0.545,0.185-0.786s0.275-0.444,0.458-0.608
		c0.383-0.355,0.784-0.533,1.203-0.533c0.364,0,0.547,0.187,0.547,0.561c0,0.948,0.314,1.608,0.943,1.982
		c0.228,0.137,0.465,0.205,0.711,0.205s0.456-0.027,0.629-0.082c0.173-0.055,0.333-0.142,0.479-0.26
		c0.328-0.265,0.492-0.579,0.492-0.943s-0.082-0.699-0.246-1.005s-0.369-0.627-0.615-0.964l-0.779-1.094
		c-1.094-1.458-1.641-2.803-1.641-4.033c0-1.021,0.433-1.946,1.299-2.775c0.984-0.938,2.247-1.408,3.787-1.408
		c1.349,0,2.401,0.333,3.158,0.998c0.62,0.538,0.93,1.153,0.93,1.846c0,0.72-0.273,1.294-0.82,1.723
		c-0.492,0.383-0.984,0.524-1.477,0.424c-0.219-0.046-0.388-0.157-0.506-0.335c-0.119-0.178-0.142-0.381-0.068-0.608
		c0.073-0.228,0.109-0.465,0.109-0.711s-0.046-0.474-0.137-0.684c-0.091-0.21-0.214-0.388-0.369-0.533
		c-0.319-0.301-0.654-0.451-1.005-0.451c-0.351,0-0.641,0.039-0.868,0.116c-0.228,0.077-0.429,0.189-0.602,0.335
		c-0.355,0.328-0.533,0.731-0.533,1.21s0.082,0.891,0.246,1.237s0.367,0.692,0.608,1.039c0.241,0.347,0.503,0.697,0.786,1.053
		c0.282,0.355,0.542,0.729,0.779,1.121c0.574,0.921,0.861,1.729,0.861,2.427s-0.146,1.28-0.438,1.75
		c-0.292,0.47-0.67,0.873-1.135,1.21c-0.994,0.738-2.105,1.107-3.336,1.107c-1.176,0-2.105-0.282-2.789-0.848
		C31.965,99.258,31.683,98.697,31.683,98.05z"/>
	<path fill="#FFFFFF" d="M55.408,97.763c0.209,0,0.314,0.104,0.314,0.314c0,0.793-0.392,1.458-1.176,1.996
		c-0.529,0.347-1.148,0.52-1.859,0.52c-0.583,0-1.03-0.137-1.34-0.41c-0.556-0.492-0.834-1.094-0.834-1.805
		c0-0.902,0.378-2.283,1.135-4.143c-1.404,1.896-2.388,3.156-2.953,3.78c-0.565,0.624-1.058,1.109-1.477,1.456
		c-0.912,0.747-1.736,1.121-2.475,1.121c-1.13,0-1.882-0.487-2.256-1.463c-0.109-0.301-0.164-0.645-0.164-1.032
		s0.066-0.82,0.198-1.299c0.132-0.479,0.303-0.978,0.513-1.497c0.209-0.52,0.438-1.053,0.684-1.6l0.738-1.641
		c0.948-2.105,1.299-3.354,1.053-3.746c-0.109-0.173-0.314-0.347-0.615-0.52c-0.109-0.063-0.164-0.176-0.164-0.335
		s0.066-0.312,0.198-0.458c0.132-0.146,0.303-0.273,0.513-0.383c0.446-0.21,0.893-0.314,1.34-0.314c0.446,0,0.786,0.048,1.019,0.144
		s0.421,0.217,0.567,0.362c0.301,0.301,0.451,0.634,0.451,0.998s-0.06,0.772-0.178,1.224c-0.119,0.451-0.273,0.941-0.465,1.47
		s-0.401,1.075-0.629,1.641c-0.629,1.477-1.053,2.452-1.271,2.926l-0.506,1.053c-0.283,0.629-0.424,1.071-0.424,1.326
		s0.041,0.436,0.123,0.54s0.23,0.157,0.444,0.157c0.214,0,0.462-0.101,0.745-0.301c0.282-0.2,0.592-0.47,0.93-0.807
		c0.337-0.337,0.688-0.727,1.053-1.169c0.364-0.442,0.72-0.9,1.066-1.374c0.684-0.93,1.185-1.677,1.504-2.242
		c1.932-3.418,2.962-5.204,3.09-5.359c0.292-0.392,0.59-0.588,0.896-0.588c0.305,0,0.572,0.034,0.8,0.103
		c0.228,0.068,0.424,0.166,0.588,0.294c0.383,0.282,0.506,0.565,0.369,0.848c-2.224,4.64-3.423,7.556-3.596,8.75
		c-0.046,0.41-0.068,0.692-0.068,0.848c0,0.692,0.209,1.039,0.629,1.039c0.392,0,0.715-0.07,0.971-0.212
		C55.144,97.833,55.317,97.763,55.408,97.763z"/>
	<path fill="#FFFFFF" d="M64.614,97.476c-1.386,2.078-2.921,3.117-4.607,3.117c-1.522,0-2.548-0.812-3.076-2.434
		c-0.183-0.556-0.273-1.239-0.273-2.051s0.116-1.625,0.349-2.44s0.549-1.588,0.95-2.317c0.401-0.729,0.873-1.401,1.415-2.017
		c0.542-0.615,1.123-1.146,1.743-1.593c1.294-0.957,2.579-1.436,3.855-1.436c1.276,0,2.188,0.597,2.734,1.791
		c0.109-0.118,0.209-0.239,0.301-0.362c0.091-0.123,0.191-0.239,0.301-0.349c0.237-0.237,0.444-0.355,0.622-0.355
		s0.364,0.032,0.561,0.096c0.196,0.063,0.385,0.15,0.567,0.26c0.446,0.265,0.615,0.511,0.506,0.738
		c-0.501,1.085-0.921,2.151-1.258,3.199l-2.023,6.453c-1.595,4.895-3.619,8.058-6.07,9.488c-0.647,0.383-1.208,0.604-1.682,0.663
		c-0.474,0.06-0.816,0.062-1.025,0.007c-0.21-0.055-0.396-0.132-0.561-0.232c-0.355-0.228-0.533-0.433-0.533-0.615
		c0-0.319,0.212-0.515,0.636-0.588s0.868-0.244,1.333-0.513s0.907-0.595,1.326-0.978C62.427,103.414,63.73,100.902,64.614,97.476z
		 M60.52,92.731c-0.242,0.656-0.431,1.328-0.567,2.017s-0.205,1.251-0.205,1.688s0.014,0.771,0.041,0.998s0.082,0.429,0.164,0.602
		c0.182,0.383,0.451,0.574,0.807,0.574s0.706-0.125,1.053-0.376c0.346-0.251,0.711-0.595,1.094-1.032s0.766-0.952,1.148-1.545
		s0.747-1.23,1.094-1.914c0.766-1.513,1.303-2.958,1.613-4.334c-0.046-0.255-0.201-0.515-0.465-0.779
		c-0.52-0.501-0.989-0.752-1.408-0.752c-0.419,0-0.839,0.13-1.258,0.39c-0.419,0.26-0.818,0.61-1.196,1.053
		c-0.378,0.442-0.731,0.957-1.06,1.545S60.761,92.075,60.52,92.731z"/>
	<path fill="#FFFFFF" d="M77.854,97.476c-1.386,2.078-2.921,3.117-4.607,3.117c-1.522,0-2.548-0.812-3.076-2.434
		c-0.183-0.556-0.273-1.239-0.273-2.051s0.116-1.625,0.349-2.44s0.549-1.588,0.95-2.317c0.401-0.729,0.873-1.401,1.415-2.017
		c0.542-0.615,1.123-1.146,1.743-1.593c1.294-0.957,2.579-1.436,3.855-1.436c1.276,0,2.188,0.597,2.734,1.791
		c0.109-0.118,0.209-0.239,0.301-0.362c0.091-0.123,0.191-0.239,0.301-0.349c0.237-0.237,0.444-0.355,0.622-0.355
		s0.364,0.032,0.561,0.096c0.196,0.063,0.385,0.15,0.567,0.26c0.446,0.265,0.615,0.511,0.506,0.738
		c-0.501,1.085-0.921,2.151-1.258,3.199l-2.023,6.453c-1.595,4.895-3.619,8.058-6.07,9.488c-0.647,0.383-1.208,0.604-1.682,0.663
		c-0.474,0.06-0.816,0.062-1.025,0.007c-0.21-0.055-0.396-0.132-0.561-0.232c-0.355-0.228-0.533-0.433-0.533-0.615
		c0-0.319,0.212-0.515,0.636-0.588s0.868-0.244,1.333-0.513s0.907-0.595,1.326-0.978C75.667,103.414,76.97,100.902,77.854,97.476z
		 M73.76,92.731c-0.242,0.656-0.431,1.328-0.567,2.017s-0.205,1.251-0.205,1.688s0.014,0.771,0.041,0.998s0.082,0.429,0.164,0.602
		c0.182,0.383,0.451,0.574,0.807,0.574s0.706-0.125,1.053-0.376c0.346-0.251,0.711-0.595,1.094-1.032s0.766-0.952,1.148-1.545
		s0.747-1.23,1.094-1.914c0.766-1.513,1.303-2.958,1.613-4.334c-0.046-0.255-0.201-0.515-0.465-0.779
		c-0.52-0.501-0.989-0.752-1.408-0.752c-0.419,0-0.839,0.13-1.258,0.39c-0.419,0.26-0.818,0.61-1.196,1.053
		c-0.378,0.442-0.731,0.957-1.06,1.545S74.001,92.075,73.76,92.731z"/>
	<path fill="#FFFFFF" d="M83.219,95.671c0.036-0.793,0.168-1.552,0.396-2.276c0.228-0.725,0.533-1.427,0.916-2.105
		s0.832-1.321,1.347-1.928c0.515-0.606,1.073-1.137,1.675-1.593c1.303-0.976,2.62-1.463,3.951-1.463
		c1.559,0,2.598,0.643,3.117,1.928c0.182,0.438,0.269,0.955,0.26,1.552c-0.009,0.597-0.123,1.148-0.342,1.654
		s-0.522,0.966-0.909,1.381c-0.388,0.415-0.848,0.786-1.381,1.114s-1.114,0.606-1.743,0.834c-1.294,0.456-2.68,0.692-4.156,0.711
		c-0.037,0.128-0.06,0.319-0.068,0.574c-0.009,0.255,0.018,0.54,0.082,0.854c0.063,0.314,0.173,0.595,0.328,0.841
		c0.328,0.547,0.802,0.82,1.422,0.82c1.057,0,2.087-0.31,3.09-0.93c0.355-0.21,0.645-0.426,0.868-0.649
		c0.223-0.224,0.417-0.335,0.581-0.335s0.308,0.098,0.431,0.294s0.185,0.417,0.185,0.663c0,0.483-0.137,0.902-0.41,1.258
		c-1.148,1.148-2.857,1.723-5.127,1.723c-1.34,0-2.416-0.401-3.227-1.203C83.593,98.479,83.165,97.238,83.219,95.671z
		 M91.204,88.124c-0.957,0-1.878,0.656-2.762,1.969c-0.748,1.13-1.349,2.47-1.805,4.02c1.522-0.155,2.844-0.757,3.965-1.805
		c1.03-0.984,1.545-1.928,1.545-2.83S91.833,88.124,91.204,88.124z"/>
	<path fill="#FFFFFF" d="M94.121,98.05c0-0.282,0.062-0.545,0.185-0.786s0.275-0.444,0.458-0.608
		c0.383-0.355,0.784-0.533,1.203-0.533c0.364,0,0.547,0.187,0.547,0.561c0,0.948,0.314,1.608,0.943,1.982
		c0.228,0.137,0.465,0.205,0.711,0.205s0.456-0.027,0.629-0.082c0.173-0.055,0.333-0.142,0.479-0.26
		c0.328-0.265,0.492-0.579,0.492-0.943s-0.082-0.699-0.246-1.005s-0.369-0.627-0.615-0.964l-0.779-1.094
		c-1.094-1.458-1.641-2.803-1.641-4.033c0-1.021,0.433-1.946,1.299-2.775c0.984-0.938,2.247-1.408,3.787-1.408
		c1.349,0,2.401,0.333,3.158,0.998c0.62,0.538,0.93,1.153,0.93,1.846c0,0.72-0.273,1.294-0.82,1.723
		c-0.492,0.383-0.984,0.524-1.477,0.424c-0.219-0.046-0.388-0.157-0.506-0.335c-0.119-0.178-0.142-0.381-0.068-0.608
		c0.073-0.228,0.109-0.465,0.109-0.711s-0.046-0.474-0.137-0.684c-0.091-0.21-0.214-0.388-0.369-0.533
		c-0.319-0.301-0.654-0.451-1.005-0.451c-0.351,0-0.641,0.039-0.868,0.116c-0.228,0.077-0.429,0.189-0.602,0.335
		c-0.355,0.328-0.533,0.731-0.533,1.21s0.082,0.891,0.246,1.237s0.367,0.692,0.608,1.039c0.241,0.347,0.503,0.697,0.786,1.053
		c0.282,0.355,0.542,0.729,0.779,1.121c0.574,0.921,0.861,1.729,0.861,2.427s-0.146,1.28-0.438,1.75
		c-0.292,0.47-0.67,0.873-1.135,1.21c-0.994,0.738-2.105,1.107-3.336,1.107c-1.176,0-2.105-0.282-2.789-0.848
		C94.403,99.258,94.121,98.697,94.121,98.05z"/>
	<path fill="#FFFFFF" d="M113.048,96.874c0.264,0,0.396,0.178,0.396,0.533c0,0.301-0.091,0.593-0.273,0.875
		c-0.246,0.528-0.738,1.03-1.477,1.504c-0.839,0.538-1.682,0.807-2.529,0.807c-1.468,0-2.397-0.656-2.789-1.969
		c-0.465-1.559,0.232-4.862,2.092-9.912c-1.048-0.091-1.618-0.273-1.709-0.547c-0.027-0.082-0.041-0.171-0.041-0.267
		s0.043-0.207,0.13-0.335c0.086-0.128,0.198-0.251,0.335-0.369c0.319-0.265,0.643-0.396,0.971-0.396h1.08
		c0.984-2.306,1.686-3.618,2.105-3.938c0.2-0.146,0.424-0.219,0.67-0.219s0.451,0.032,0.615,0.096s0.31,0.155,0.438,0.273
		c0.292,0.273,0.438,0.579,0.438,0.916c0,0.183-0.055,0.392-0.164,0.629l-1.012,2.201h0.328c0.565,0,1.021-0.005,1.367-0.014
		l0.779-0.014c0.173-0.009,0.39-0.014,0.649-0.014s0.39,0.096,0.39,0.287c0,1.203-1.422,1.805-4.266,1.805h-0.109l-0.93,2.406
		c-1.048,2.844-1.572,4.835-1.572,5.975c0,0.319,0.073,0.567,0.219,0.745c0.146,0.178,0.419,0.267,0.82,0.267
		c0.401,0,0.766-0.068,1.094-0.205s0.615-0.289,0.861-0.458s0.458-0.321,0.636-0.458S112.92,96.874,113.048,96.874z"/>
	<path fill="#FFFFFF" d="M125.22,98.891c-1.244,1.099-2.22,1.647-2.926,1.647c-0.707,0-1.196-0.364-1.47-1.094
		c-0.101-0.255-0.15-0.492-0.15-0.711c0-0.593,0.093-1.167,0.28-1.723c0.187-0.556,0.371-1.075,0.554-1.559l1.203-3.104
		c0.465-1.267,0.747-2.151,0.848-2.652c0.1-0.501,0.086-0.841-0.041-1.019c-0.128-0.178-0.276-0.333-0.444-0.465
		c-0.169-0.132-0.328-0.251-0.479-0.355s-0.226-0.237-0.226-0.396s0.066-0.312,0.198-0.458c0.132-0.146,0.308-0.273,0.526-0.383
		c0.438-0.21,0.891-0.314,1.36-0.314c0.469,0,0.838,0.048,1.107,0.144c0.269,0.096,0.49,0.217,0.663,0.362
		c0.337,0.301,0.506,0.663,0.506,1.087s-0.071,0.9-0.212,1.429c-0.142,0.528-0.319,1.089-0.533,1.682
		c-0.214,0.593-0.454,1.208-0.718,1.846l-0.752,1.887c-0.593,1.522-0.953,2.661-1.08,3.418c0.856-0.292,1.991-1.34,3.404-3.145
		c1.54-1.978,2.903-4.233,4.088-6.768c0.137-0.319,0.305-0.524,0.506-0.615c0.328-0.155,0.743-0.224,1.244-0.205
		c0.793,0.027,1.203,0.273,1.23,0.738c0.018,0.282-0.057,0.595-0.226,0.937c-0.169,0.342-0.308,0.627-0.417,0.854l-0.533,1.094
		c-1.066,2.16-1.6,3.915-1.6,5.264c0,0.938,0.255,1.581,0.766,1.928c0.146,0.109,0.369,0.164,0.67,0.164s0.656-0.107,1.066-0.321
		s0.802-0.508,1.176-0.882c0.374-0.374,0.722-0.809,1.046-1.306c0.323-0.497,0.604-1.027,0.841-1.593
		c0.501-1.194,0.752-2.251,0.752-3.172c0-1.577-0.296-2.739-0.889-3.486c-0.201-0.237-0.142-0.515,0.178-0.834
		c0.337-0.337,0.866-0.506,1.586-0.506c0.884,0,1.485,0.497,1.805,1.49c0.127,0.374,0.191,0.935,0.191,1.682
		s-0.132,1.579-0.396,2.495c-0.265,0.916-0.622,1.796-1.073,2.639s-0.971,1.629-1.559,2.358s-1.206,1.362-1.853,1.9
		c-1.386,1.148-2.671,1.723-3.855,1.723c-2.033,0-3.049-1.312-3.049-3.938c0-0.602,0.055-1.189,0.164-1.764
		C127.624,96.459,126.464,97.792,125.22,98.891z"/>
	<path fill="#FFFFFF" d="M150.074,88.89c-0.502,0-1.4,0.766-2.694,2.297l-1.135,1.395l-2.188,2.857
		c-0.529,1.003-0.943,1.837-1.244,2.502l-0.738,1.586c-0.191,0.392-0.358,0.668-0.499,0.827c-0.142,0.159-0.333,0.239-0.574,0.239
		c-0.242,0-0.474-0.043-0.697-0.13c-0.224-0.087-0.417-0.198-0.581-0.335c-0.347-0.292-0.52-0.61-0.52-0.957
		c0-0.137,0.096-0.405,0.287-0.807l0.547-1.107c1.704-3.509,3.249-7.957,4.635-13.344c0.51-1.987,0.879-3.773,1.107-5.359
		c0.1-0.766,0.474-1.148,1.121-1.148c0.419,0,0.766,0.101,1.039,0.301c0.528,0.392,0.784,0.812,0.766,1.258
		c-0.019,0.446-0.082,0.948-0.191,1.504s-0.251,1.16-0.424,1.812c-0.173,0.651-0.369,1.338-0.588,2.058
		c-0.602,1.832-1.048,3.153-1.34,3.965c-0.894,2.452-1.445,3.888-1.654,4.307c0.137-0.164,0.314-0.388,0.533-0.67
		c1.659-2.179,2.684-3.479,3.076-3.903c0.392-0.424,0.725-0.75,0.999-0.978c0.574-0.501,1.303-0.752,2.188-0.752
		c0.719,0,1.299,0.241,1.736,0.725c0.41,0.465,0.615,0.973,0.615,1.524s-0.062,1.048-0.186,1.49s-0.279,0.891-0.471,1.347
		s-0.402,0.925-0.629,1.408l-0.684,1.436c-0.639,1.449-0.957,2.524-0.957,3.227c0,0.492,0.199,0.738,0.602,0.738
		c0.383,0,0.73-0.082,1.045-0.246s0.518-0.246,0.609-0.246c0.191,0,0.287,0.096,0.287,0.287c0,0.812-0.41,1.49-1.23,2.037
		c-0.566,0.374-1.08,0.561-1.545,0.561s-0.85-0.048-1.156-0.144c-0.305-0.096-0.576-0.253-0.813-0.472
		c-0.538-0.492-0.807-1.217-0.807-2.174c0-1.03,0.337-2.324,1.012-3.883l1.477-3.145c0.281-0.583,0.424-1.044,0.424-1.381
		S150.447,88.89,150.074,88.89z"/>
	<path fill="#FFFFFF" d="M164.763,96.819c0,0.839,0.296,1.258,0.889,1.258c0.41,0,0.75-0.063,1.019-0.191s0.449-0.191,0.54-0.191
		c0.191,0,0.287,0.101,0.287,0.301c0,0.784-0.41,1.458-1.23,2.023c-0.866,0.593-1.75,0.738-2.652,0.438
		c-0.593-0.21-1.03-0.661-1.312-1.354c-0.137-0.355-0.205-0.679-0.205-0.971c0-0.474,0.046-0.976,0.137-1.504
		c-0.848,1.731-1.9,2.926-3.158,3.582c-0.501,0.255-1.034,0.383-1.6,0.383s-1.055-0.116-1.47-0.349s-0.768-0.554-1.06-0.964
		c-0.593-0.856-0.861-1.933-0.807-3.227c0.055-1.622,0.533-3.213,1.436-4.771c0.829-1.458,1.878-2.647,3.145-3.568
		c1.267-0.938,2.452-1.408,3.555-1.408s1.991,0.506,2.666,1.518c0.629-1.012,1.185-1.518,1.668-1.518
		c0.52,0,0.911,0.096,1.176,0.287c0.501,0.364,0.679,0.684,0.533,0.957c-2.288,4.685-3.464,7.602-3.527,8.75
		C164.771,96.464,164.763,96.637,164.763,96.819z M157.175,96.874c0,1.094,0.351,1.641,1.053,1.641c0.538,0,1.198-0.456,1.982-1.367
		c1.148-1.34,2.165-3.145,3.049-5.414c0.282-0.711,0.52-1.422,0.711-2.133c-0.036-0.62-0.296-1.075-0.779-1.367
		c-0.164-0.101-0.408-0.15-0.731-0.15s-0.702,0.118-1.135,0.355s-0.853,0.561-1.258,0.971s-0.784,0.896-1.135,1.456
		s-0.658,1.169-0.923,1.825C157.453,94.094,157.175,95.488,157.175,96.874z"/>
	<path fill="#FFFFFF" d="M175.814,96.874c0.265,0,0.396,0.178,0.396,0.533c0,0.301-0.091,0.593-0.273,0.875
		c-0.246,0.528-0.738,1.03-1.477,1.504c-0.839,0.538-1.682,0.807-2.529,0.807c-1.468,0-2.397-0.656-2.789-1.969
		c-0.465-1.559,0.232-4.862,2.092-9.912c-1.048-0.091-1.618-0.273-1.709-0.547c-0.027-0.082-0.041-0.171-0.041-0.267
		s0.043-0.207,0.13-0.335s0.198-0.251,0.335-0.369c0.319-0.265,0.643-0.396,0.971-0.396H172c0.984-2.306,1.687-3.618,2.105-3.938
		c0.2-0.146,0.424-0.219,0.67-0.219s0.451,0.032,0.615,0.096s0.31,0.155,0.438,0.273c0.292,0.273,0.438,0.579,0.438,0.916
		c0,0.183-0.055,0.392-0.164,0.629l-1.012,2.201h0.328c0.565,0,1.021-0.005,1.367-0.014l0.779-0.014
		c0.173-0.009,0.39-0.014,0.649-0.014s0.39,0.096,0.39,0.287c0,1.203-1.422,1.805-4.266,1.805h-0.109l-0.93,2.406
		c-1.048,2.844-1.572,4.835-1.572,5.975c0,0.319,0.073,0.567,0.219,0.745s0.419,0.267,0.82,0.267s0.766-0.068,1.094-0.205
		s0.615-0.289,0.861-0.458s0.458-0.321,0.636-0.458S175.687,96.874,175.814,96.874z"/>
	<path fill="#FFFFFF" d="M181.925,83.879c-0.306,0.232-0.613,0.415-0.923,0.547s-0.629,0.198-0.957,0.198s-0.511-0.104-0.547-0.314
		c-0.019-0.118,0.06-0.278,0.232-0.479l0.588-0.602c0.766-0.784,1.148-1.477,1.148-2.078c0-0.547-0.114-1.005-0.342-1.374
		s-0.381-0.631-0.458-0.786s-0.062-0.362,0.048-0.622s0.326-0.485,0.649-0.677s0.74-0.287,1.251-0.287s0.916,0.226,1.217,0.677
		s0.451,0.95,0.451,1.497s-0.066,1.01-0.198,1.388s-0.306,0.745-0.52,1.101s-0.465,0.688-0.752,0.998S182.23,83.646,181.925,83.879z
		"/>
	<path fill="#FFFFFF" d="M181.704,98.05c0-0.282,0.062-0.545,0.185-0.786s0.275-0.444,0.458-0.608
		c0.383-0.355,0.784-0.533,1.203-0.533c0.364,0,0.547,0.187,0.547,0.561c0,0.948,0.314,1.608,0.943,1.982
		c0.228,0.137,0.465,0.205,0.711,0.205s0.456-0.027,0.629-0.082s0.333-0.142,0.479-0.26c0.328-0.265,0.492-0.579,0.492-0.943
		s-0.082-0.699-0.246-1.005s-0.369-0.627-0.615-0.964l-0.779-1.094c-1.094-1.458-1.641-2.803-1.641-4.033
		c0-1.021,0.433-1.946,1.299-2.775c0.984-0.938,2.247-1.408,3.787-1.408c1.349,0,2.401,0.333,3.158,0.998
		c0.62,0.538,0.93,1.153,0.93,1.846c0,0.72-0.273,1.294-0.82,1.723c-0.492,0.383-0.984,0.524-1.477,0.424
		c-0.219-0.046-0.388-0.157-0.506-0.335s-0.142-0.381-0.068-0.608s0.109-0.465,0.109-0.711s-0.046-0.474-0.137-0.684
		s-0.214-0.388-0.369-0.533c-0.319-0.301-0.654-0.451-1.005-0.451s-0.641,0.039-0.868,0.116s-0.429,0.189-0.602,0.335
		c-0.355,0.328-0.533,0.731-0.533,1.21s0.082,0.891,0.246,1.237s0.367,0.692,0.608,1.039s0.504,0.697,0.786,1.053
		s0.542,0.729,0.779,1.121c0.574,0.921,0.861,1.729,0.861,2.427s-0.146,1.28-0.438,1.75s-0.67,0.873-1.135,1.21
		c-0.993,0.738-2.105,1.107-3.336,1.107c-1.176,0-2.105-0.282-2.789-0.848C181.986,99.258,181.704,98.697,181.704,98.05z"/>
	<path fill="#FFFFFF" d="M199.856,96.573c0-0.528,0.039-1.034,0.116-1.518s0.178-0.971,0.301-1.463s0.262-0.984,0.417-1.477
		l1.531-4.676c1.212-3.792,1.974-6.754,2.283-8.887c0.101-0.766,0.474-1.148,1.121-1.148c0.383,0,0.706,0.101,0.971,0.301
		c0.483,0.392,0.718,0.809,0.704,1.251s-0.077,0.935-0.191,1.477s-0.26,1.133-0.438,1.771s-0.381,1.308-0.608,2.01
		c-0.61,1.805-1.066,3.108-1.367,3.91l-0.779,2.037c0.793-1.23,1.44-2.073,1.941-2.529c1.003-0.884,2.046-1.326,3.131-1.326
		c1.595,0,2.657,0.834,3.186,2.502c0.173,0.574,0.26,1.29,0.26,2.146s-0.125,1.707-0.376,2.55s-0.59,1.627-1.019,2.352
		s-0.928,1.379-1.497,1.962s-1.169,1.08-1.798,1.49c-1.331,0.856-2.62,1.285-3.869,1.285c-1.258,0-2.247-0.383-2.967-1.148
		C200.207,98.679,199.856,97.722,199.856,96.573z M203.685,98.815c0.856,0,1.728-0.383,2.611-1.148
		c1.349-1.167,2.256-2.835,2.721-5.004c0.155-0.711,0.232-1.451,0.232-2.222s-0.087-1.311-0.26-1.62s-0.439-0.465-0.8-0.465
		s-0.736,0.146-1.128,0.438s-0.802,0.677-1.23,1.155s-0.853,1.03-1.271,1.654s-0.798,1.27-1.135,1.935
		c-0.738,1.468-1.107,2.714-1.107,3.739S202.773,98.815,203.685,98.815z"/>
	<path fill="#FFFFFF" d="M213.083,95.671c0.036-0.793,0.169-1.552,0.396-2.276s0.533-1.427,0.916-2.105s0.832-1.321,1.347-1.928
		s1.073-1.137,1.675-1.593c1.304-0.976,2.62-1.463,3.951-1.463c1.559,0,2.598,0.643,3.117,1.928c0.183,0.438,0.269,0.955,0.26,1.552
		s-0.123,1.148-0.342,1.654s-0.521,0.966-0.909,1.381s-0.848,0.786-1.381,1.114s-1.114,0.606-1.743,0.834
		c-1.294,0.456-2.68,0.692-4.156,0.711c-0.036,0.128-0.06,0.319-0.068,0.574s0.019,0.54,0.082,0.854s0.173,0.595,0.328,0.841
		c0.328,0.547,0.802,0.82,1.422,0.82c1.058,0,2.087-0.31,3.09-0.93c0.355-0.21,0.645-0.426,0.868-0.649s0.417-0.335,0.581-0.335
		s0.308,0.098,0.431,0.294s0.185,0.417,0.185,0.663c0,0.483-0.137,0.902-0.41,1.258c-1.148,1.148-2.857,1.723-5.127,1.723
		c-1.34,0-2.415-0.401-3.227-1.203C213.457,98.479,213.028,97.238,213.083,95.671z M221.067,88.124
		c-0.957,0-1.878,0.656-2.762,1.969c-0.747,1.13-1.349,2.47-1.805,4.02c1.522-0.155,2.844-0.757,3.965-1.805
		c1.03-0.984,1.545-1.928,1.545-2.83S221.696,88.124,221.067,88.124z"/>
	<path fill="#FFFFFF" d="M232.599,96.874c0.265,0,0.396,0.178,0.396,0.533c0,0.301-0.091,0.593-0.273,0.875
		c-0.246,0.528-0.738,1.03-1.477,1.504c-0.839,0.538-1.682,0.807-2.529,0.807c-1.468,0-2.397-0.656-2.789-1.969
		c-0.465-1.559,0.232-4.862,2.092-9.912c-1.048-0.091-1.618-0.273-1.709-0.547c-0.027-0.082-0.041-0.171-0.041-0.267
		s0.043-0.207,0.13-0.335s0.198-0.251,0.335-0.369c0.319-0.265,0.643-0.396,0.971-0.396h1.08c0.984-2.306,1.687-3.618,2.105-3.938
		c0.2-0.146,0.424-0.219,0.67-0.219s0.451,0.032,0.615,0.096s0.31,0.155,0.438,0.273c0.292,0.273,0.438,0.579,0.438,0.916
		c0,0.183-0.055,0.392-0.164,0.629l-1.012,2.201h0.328c0.565,0,1.021-0.005,1.367-0.014l0.779-0.014
		c0.173-0.009,0.39-0.014,0.649-0.014s0.39,0.096,0.39,0.287c0,1.203-1.422,1.805-4.266,1.805h-0.109l-0.93,2.406
		c-1.048,2.844-1.572,4.835-1.572,5.975c0,0.319,0.073,0.567,0.219,0.745s0.419,0.267,0.82,0.267s0.766-0.068,1.094-0.205
		s0.615-0.289,0.861-0.458s0.458-0.321,0.636-0.458S232.471,96.874,232.599,96.874z"/>
	<path fill="#FFFFFF" d="M241.135,96.874c0.265,0,0.396,0.178,0.396,0.533c0,0.301-0.091,0.593-0.273,0.875
		c-0.246,0.528-0.738,1.03-1.477,1.504c-0.839,0.538-1.682,0.807-2.529,0.807c-1.468,0-2.397-0.656-2.789-1.969
		c-0.465-1.559,0.232-4.862,2.092-9.912c-1.048-0.091-1.618-0.273-1.709-0.547c-0.027-0.082-0.041-0.171-0.041-0.267
		s0.043-0.207,0.13-0.335s0.198-0.251,0.335-0.369c0.319-0.265,0.643-0.396,0.971-0.396h1.08c0.984-2.306,1.687-3.618,2.105-3.938
		c0.2-0.146,0.424-0.219,0.67-0.219s0.451,0.032,0.615,0.096s0.31,0.155,0.438,0.273c0.292,0.273,0.438,0.579,0.438,0.916
		c0,0.183-0.055,0.392-0.164,0.629l-1.012,2.201h0.328c0.565,0,1.021-0.005,1.367-0.014l0.779-0.014
		c0.173-0.009,0.39-0.014,0.649-0.014s0.39,0.096,0.39,0.287c0,1.203-1.422,1.805-4.266,1.805h-0.109l-0.93,2.406
		c-1.048,2.844-1.572,4.835-1.572,5.975c0,0.319,0.073,0.567,0.219,0.745s0.419,0.267,0.82,0.267s0.766-0.068,1.094-0.205
		s0.615-0.289,0.861-0.458s0.458-0.321,0.636-0.458S241.007,96.874,241.135,96.874z"/>
	<path fill="#FFFFFF" d="M241.852,95.671c0.036-0.793,0.169-1.552,0.396-2.276s0.533-1.427,0.916-2.105s0.832-1.321,1.347-1.928
		s1.073-1.137,1.675-1.593c1.304-0.976,2.62-1.463,3.951-1.463c1.559,0,2.598,0.643,3.117,1.928c0.183,0.438,0.269,0.955,0.26,1.552
		s-0.123,1.148-0.342,1.654s-0.521,0.966-0.909,1.381s-0.848,0.786-1.381,1.114s-1.114,0.606-1.743,0.834
		c-1.294,0.456-2.68,0.692-4.156,0.711c-0.036,0.128-0.06,0.319-0.068,0.574s0.019,0.54,0.082,0.854s0.173,0.595,0.328,0.841
		c0.328,0.547,0.802,0.82,1.422,0.82c1.058,0,2.087-0.31,3.09-0.93c0.355-0.21,0.645-0.426,0.868-0.649s0.417-0.335,0.581-0.335
		s0.308,0.098,0.431,0.294s0.185,0.417,0.185,0.663c0,0.483-0.137,0.902-0.41,1.258c-1.148,1.148-2.857,1.723-5.127,1.723
		c-1.34,0-2.415-0.401-3.227-1.203C242.226,98.479,241.797,97.238,241.852,95.671z M249.836,88.124
		c-0.957,0-1.878,0.656-2.762,1.969c-0.747,1.13-1.349,2.47-1.805,4.02c1.522-0.155,2.844-0.757,3.965-1.805
		c1.03-0.984,1.545-1.928,1.545-2.83S250.465,88.124,249.836,88.124z"/>
	<path fill="#FFFFFF" d="M253.465,100.128c-0.183-0.137-0.328-0.289-0.438-0.458s-0.169-0.314-0.178-0.438s0.016-0.273,0.075-0.451
		s0.139-0.395,0.239-0.649c1.859-4.575,2.789-7.647,2.789-9.215c-0.027-0.438-0.178-0.747-0.451-0.93l-0.273-0.191
		c-0.082-0.063-0.125-0.176-0.13-0.335s0.053-0.312,0.171-0.458s0.273-0.273,0.465-0.383c0.392-0.21,0.795-0.314,1.21-0.314
		s0.738,0.046,0.971,0.137s0.431,0.214,0.595,0.369c0.347,0.328,0.521,0.675,0.526,1.039s-0.036,0.733-0.123,1.107
		s-0.189,0.74-0.308,1.101s-0.237,0.702-0.355,1.025s-0.196,0.562-0.232,0.718c-0.073,0.319-0.101,0.52-0.082,0.602
		c0.219-0.191,0.351-0.378,0.396-0.561l0.533-1.012c1.185-2.133,2.343-3.546,3.473-4.238c0.328-0.191,0.723-0.287,1.183-0.287
		s0.832,0.162,1.114,0.485s0.431,0.682,0.444,1.073s-0.014,0.718-0.082,0.978s-0.171,0.504-0.308,0.731
		c-0.301,0.511-0.665,0.766-1.094,0.766c-0.118,0-0.228-0.041-0.328-0.123l-0.301-0.26c-0.301-0.265-0.59-0.396-0.868-0.396
		s-0.615,0.183-1.012,0.547s-0.809,0.834-1.237,1.408c-1.44,1.905-2.616,4.038-3.527,6.398l-0.602,1.586
		c-0.155,0.392-0.292,0.672-0.41,0.841s-0.294,0.253-0.526,0.253s-0.465-0.043-0.697-0.13S253.647,100.265,253.465,100.128z"/>
	<path fill="#FFFFFF" d="M263.663,99.991c-0.205-0.2-0.367-0.431-0.485-0.69S263,98.74,263,98.398s0.066-0.647,0.198-0.916
		s0.299-0.485,0.499-0.649c0.355-0.292,0.731-0.438,1.128-0.438s0.733,0.027,1.012,0.082s0.54,0.142,0.786,0.26
		c0.565,0.292,0.848,0.711,0.848,1.258c0,0.684-0.224,1.28-0.67,1.791c-0.419,0.474-0.854,0.733-1.306,0.779
		s-0.818,0.012-1.101-0.103S263.868,100.191,263.663,99.991z"/>
</g>
</svg>
